<mxfile host="app.diagrams.net" modified="2024-03-04T08:35:31.058Z" agent="Mozilla/5.0 (Windows NT 10.0; Win64; x64) AppleWebKit/537.36 (KHTML, like Gecko) Chrome/122.0.0.0 Safari/537.36" version="24.0.1" etag="GZBl0r_tZkGBUKkBVa-l" type="github">
  <diagram name="Pagina-1" id="AIlhcgyTNl8gfWdVC3Lb">
    <mxGraphModel>
      <root>
        <mxCell id="0" />
        <mxCell id="1" parent="0" />
      </root>
    </mxGraphModel>
  </diagram>
</mxfile>
